<svg xmlns="http://www.w3.org/2000/svg" viewBox="0 0 442 271"><path fill="#fff" d="M103 25h26v1h-26zM173 25h26v1h-26zM383 25h26v1h-26zM101 26h30v1h-30zM171 26h30v1h-30zM381 26h30v1h-30zM99 27h34v1h-34zM169 27h34v1h-34zM379 27h34v1h-34zM97 28h37v1h-37zM167 28h37v1h-37zM378 28h37v1h-37zM96 29h39v1h-39zM166 29h39v1h-39zM377 29h39v1h-39zM96 30h40v1h-40zM166 30h40v1h-40zM376 30h40v1h-40zM95 31h42v1h-42zM165 31h42v1h-42zM375 31h42v1h-42zM94 32h43v1h-43zM164 32h43v1h-43zM375 32h43v1h-43zM94 33h44v2h-44zM164 33h44v2h-44zM374 33h44v2h-44zM93 35h45v1h-45zM163 35h45v1h-45zM374 35h45v1h-45zM93 36h46v59h-46zM163 36h46v59h-46zM373 36h46v59h-46zM68 95h166v1h-166zM278 95h26v1h-26zM348 95h70v1h-70zM66 96h170v1h-170zM276 96h30v1h-30zM346 96h72v1h-72zM64 97h174v1h-174zM274 97h34v1h-34zM344 97h74v1h-74zM63 98h176v1h-176zM273 98h36v1h-36zM343 98h74v1h-74zM62 99h178v1h-178zM272 99h38v1h-38zM342 99h75v1h-75zM61 100h180v1h-180zM271 100h40v1h-40zM341 100h75v1h-75zM60 101h182v1h-182zM270 101h42v1h-42zM340 101h75v1h-75zM60 102h182v1h-182zM270 102h42v1h-42zM340 102h74v1h-74zM59 103h184v1h-184zM269 103h44v1h-44zM339 103h74v1h-74zM59 104h184v1h-184zM269 104h44v1h-44zM339 104h72v1h-72zM58 105h185v1h-185zM269 105h44v1h-44zM339 105h68v1h-68zM58 106h46v58h-46zM128 106h45v58h-45zM198 106h46v58h-46zM268 106h46v58h-46zM338 106h46v58h-46zM58 164h45v1h-45zM128 164h45v1h-45zM198 164h46v1h-46zM268 164h46v1h-46zM338 164h46v1h-46zM35 165h68v1h-68zM128 165h255v1h-255zM31 166h72v1h-72zM129 166h254v1h-254zM29 167h74v1h-74zM129 167h254v1h-254zM28 168h74v1h-74zM129 168h253v1h-253zM27 169h75v1h-75zM130 169h252v1h-252zM26 170h75v1h-75zM131 170h250v1h-250zM25 171h75v1h-75zM131 171h249v1h-249zM25 172h74v1h-74zM132 172h247v1h-247zM24 173h74v1h-74zM134 173h244v1h-244zM24 174h72v1h-72zM136 174h240v1h-240zM23 175h69v1h-69zM140 175h232v1h-232zM23 176h46v58h-46zM163 176h46v58h-46zM233 176h46v58h-46zM303 176h46v58h-46zM23 234h45v1h-45zM163 234h46v1h-46zM233 234h46v1h-46zM303 234h46v1h-46zM23 235h45v1h-45zM164 235h44v1h-44zM234 235h44v1h-44zM304 235h44v1h-44zM24 236h44v2h-44zM164 236h44v2h-44zM234 236h44v2h-44zM304 236h44v2h-44zM25 238h42v2h-42zM165 238h42v2h-42zM235 238h42v2h-42zM305 238h42v2h-42zM26 240h40v1h-40zM166 240h40v1h-40zM236 240h40v1h-40zM306 240h40v1h-40zM26 241h39v1h-39zM167 241h38v1h-38zM237 241h38v1h-38zM307 241h38v1h-38zM27 242h37v1h-37zM167 242h38v1h-38zM237 242h38v1h-38zM307 242h38v1h-38zM28 243h35v1h-35zM169 243h34v1h-34zM239 243h34v1h-34zM309 243h35v1h-35zM30 244h31v1h-31zM170 244h32v1h-32zM240 244h32v1h-32zM310 244h32v1h-32zM33 245h26v1h-26zM173 245h26v1h-26zM243 245h26v1h-26zM313 245h26v1h-26z"/></svg>
