<svg xmlns="http://www.w3.org/2000/svg" viewBox="0 0 442 271">
  <path fill="#fff" d="M22 221c0 14 11 25 25 25h44c14 0 25-11 25-25v-48h29c14 0 25-11 25-25V95h27v128c0 14 11 25 25 25h33c14 0 25-11 25-25v-58h29v58c0 14 11 25 25 25h39c14 0 25-11 25-25v-85h30c14 0 25-11 25-25V50c0-14-11-25-25-25h-34c-14 0-25 11-25 25v48h-28c-14 0-25 11-25 25v42h-31v-42c0-14-11-25-25-25h-29v42h-31V50c0-14-11-25-25-25h-28c-14 0-25 11-25 25v90h-27V50c0-14-11-25-25-25H91c-14 0-25 11-25 25v98H47c-14 0-25 11-25 25v48z"/>
</svg>
